<?xml version="1.0" encoding="UTF-8" standalone="no"?>
<!DOCTYPE svg PUBLIC "-//W3C//DTD SVG 1.1//EN"
 "http://www.w3.org/Graphics/SVG/1.1/DTD/svg11.dtd">
<!-- Generated by graphviz version 5.0.0 (20220707.1540)
 -->
<!-- Title: UmlClassDiagram Pages: 1 -->
<svg width="340pt" height="258pt"
 viewBox="0.00 0.00 340.00 257.80" xmlns="http://www.w3.org/2000/svg" xmlns:xlink="http://www.w3.org/1999/xlink">
<g id="graph0" class="graph" transform="scale(1 1) rotate(0) translate(4 253.8)">
<title>UmlClassDiagram</title>
<polygon fill="white" stroke="transparent" points="-4,4 -4,-253.8 336,-253.8 336,4 -4,4"/>
<g id="clust1" class="cluster">
<title>cluster_0</title>
<polygon fill="none" stroke="black" points="8,-8 8,-241.8 324,-241.8 324,-8 8,-8"/>
<text text-anchor="middle" x="166" y="-16.2" font-family="Times,serif" font-size="14.00">src</text>
</g>
<!-- 0 -->
<g id="node1" class="node">
<title>0</title>
<polygon fill="#f2f2f2" stroke="black" points="15.69,-41.3 15.69,-233.3 316.31,-233.3 316.31,-41.3 15.69,-41.3"/>
<text text-anchor="middle" x="166" y="-216.7" font-family="Times,serif" font-size="14.00">DIDRegistry</text>
<text text-anchor="middle" x="166" y="-199.9" font-family="Times,serif" font-size="14.00">src/DIDRegistry.sol</text>
<polyline fill="none" stroke="black" points="15.69,-191.7 316.31,-191.7 "/>
<text text-anchor="start" x="23.69" y="-175.1" font-family="Times,serif" font-size="14.00">Public:</text>
<text text-anchor="start" x="23.69" y="-158.3" font-family="Times,serif" font-size="14.00"> &#160;&#160;keyByDID: mapping(bytes32=&gt;bytes32)</text>
<text text-anchor="start" x="23.69" y="-141.5" font-family="Times,serif" font-size="14.00"> &#160;&#160;DIDByKey: mapping(bytes32=&gt;bytes32)</text>
<polyline fill="none" stroke="black" points="15.69,-133.3 316.31,-133.3 "/>
<text text-anchor="start" x="23.69" y="-116.7" font-family="Times,serif" font-size="14.00">Public:</text>
<text text-anchor="start" x="23.69" y="-99.9" font-family="Times,serif" font-size="14.00"> &#160;&#160;&#160;createDID(_did: bytes32, _publicKey: bytes32)</text>
<text text-anchor="start" x="23.69" y="-83.1" font-family="Times,serif" font-size="14.00"> &#160;&#160;&#160;updateDID(_did: bytes32, _publicKey: bytes32)</text>
<text text-anchor="start" x="23.69" y="-66.3" font-family="Times,serif" font-size="14.00"> &#160;&#160;&#160;resolveDID(_did: bytes32): bytes32</text>
<text text-anchor="start" x="23.69" y="-49.5" font-family="Times,serif" font-size="14.00"> &#160;&#160;&#160;getDID(_publicKey: bytes32): bytes32</text>
</g>
</g>
</svg>
