<?xml version="1.0" encoding="UTF-8" standalone="no"?>
<!DOCTYPE svg PUBLIC "-//W3C//DTD SVG 1.1//EN"
 "http://www.w3.org/Graphics/SVG/1.1/DTD/svg11.dtd">
<!-- Generated by graphviz version 5.0.0 (20220707.1540)
 -->
<!-- Title: UmlClassDiagram Pages: 1 -->
<svg width="370pt" height="241pt"
 viewBox="0.00 0.00 370.00 241.00" xmlns="http://www.w3.org/2000/svg" xmlns:xlink="http://www.w3.org/1999/xlink">
<g id="graph0" class="graph" transform="scale(1 1) rotate(0) translate(4 237)">
<title>UmlClassDiagram</title>
<polygon fill="white" stroke="transparent" points="-4,4 -4,-237 366,-237 366,4 -4,4"/>
<g id="clust1" class="cluster">
<title>cluster_0</title>
<polygon fill="none" stroke="black" points="8,-8 8,-225 354,-225 354,-8 8,-8"/>
<text text-anchor="middle" x="181" y="-16.2" font-family="Times,serif" font-size="14.00">src</text>
</g>
<!-- 0 -->
<g id="node1" class="node">
<title>0</title>
<polygon fill="#f2f2f2" stroke="black" points="16.31,-41.3 16.31,-216.5 345.69,-216.5 345.69,-41.3 16.31,-41.3"/>
<text text-anchor="middle" x="181" y="-199.9" font-family="Times,serif" font-size="14.00">IdentityProvider</text>
<text text-anchor="middle" x="181" y="-183.1" font-family="Times,serif" font-size="14.00">src/IdentityProvider.sol</text>
<polyline fill="none" stroke="black" points="16.31,-174.9 345.69,-174.9 "/>
<text text-anchor="start" x="24.31" y="-158.3" font-family="Times,serif" font-size="14.00">Public:</text>
<text text-anchor="start" x="24.31" y="-141.5" font-family="Times,serif" font-size="14.00"> &#160;&#160;identity: mapping(address=&gt;string)</text>
<text text-anchor="start" x="24.31" y="-124.7" font-family="Times,serif" font-size="14.00"> &#160;&#160;keyManagement: KeyManagement</text>
<polyline fill="none" stroke="black" points="16.31,-116.5 345.69,-116.5 "/>
<text text-anchor="start" x="24.31" y="-99.9" font-family="Times,serif" font-size="14.00">Public:</text>
<text text-anchor="start" x="24.31" y="-83.1" font-family="Times,serif" font-size="14.00"> &#160;&#160;&#160;registerIdentity(_identity: string)</text>
<text text-anchor="start" x="24.31" y="-66.3" font-family="Times,serif" font-size="14.00"> &#160;&#160;&#160;getIdentity(_address: address): string</text>
<text text-anchor="start" x="24.31" y="-49.5" font-family="Times,serif" font-size="14.00"> &#160;&#160;&#160;keyHasNotBeenRevoked(_publicKey: bytes32): bool</text>
</g>
</g>
</svg>
