<?xml version="1.0" encoding="UTF-8" standalone="no"?>
<!DOCTYPE svg PUBLIC "-//W3C//DTD SVG 1.1//EN"
 "http://www.w3.org/Graphics/SVG/1.1/DTD/svg11.dtd">
<!-- Generated by graphviz version 5.0.0 (20220707.1540)
 -->
<!-- Title: UmlClassDiagram Pages: 1 -->
<svg width="444pt" height="224pt"
 viewBox="0.00 0.00 444.00 224.20" xmlns="http://www.w3.org/2000/svg" xmlns:xlink="http://www.w3.org/1999/xlink">
<g id="graph0" class="graph" transform="scale(1 1) rotate(0) translate(4 220.2)">
<title>UmlClassDiagram</title>
<polygon fill="white" stroke="transparent" points="-4,4 -4,-220.2 440,-220.2 440,4 -4,4"/>
<g id="clust1" class="cluster">
<title>cluster_0</title>
<polygon fill="none" stroke="black" points="8,-8 8,-208.2 428,-208.2 428,-8 8,-8"/>
<text text-anchor="middle" x="218" y="-16.2" font-family="Times,serif" font-size="14.00">src</text>
</g>
<!-- 0 -->
<g id="node1" class="node">
<title>0</title>
<polygon fill="#f2f2f2" stroke="black" points="15.99,-41.3 15.99,-199.7 420.01,-199.7 420.01,-41.3 15.99,-41.3"/>
<text text-anchor="middle" x="218" y="-183.1" font-family="Times,serif" font-size="14.00">KeyManagement</text>
<text text-anchor="middle" x="218" y="-166.3" font-family="Times,serif" font-size="14.00">src/KeyManagment.sol</text>
<polyline fill="none" stroke="black" points="15.99,-158.1 420.01,-158.1 "/>
<text text-anchor="start" x="23.99" y="-141.5" font-family="Times,serif" font-size="14.00">Public:</text>
<text text-anchor="start" x="23.99" y="-124.7" font-family="Times,serif" font-size="14.00"> &#160;&#160;publicKey: mapping(address=&gt;bytes32)</text>
<polyline fill="none" stroke="black" points="15.99,-116.5 420.01,-116.5 "/>
<text text-anchor="start" x="23.99" y="-99.9" font-family="Times,serif" font-size="14.00">Public:</text>
<text text-anchor="start" x="23.99" y="-83.1" font-family="Times,serif" font-size="14.00"> &#160;&#160;&#160;register(_publicKey: bytes32, _signature: bytes): bool</text>
<text text-anchor="start" x="23.99" y="-66.3" font-family="Times,serif" font-size="14.00"> &#160;&#160;&#160;getPublicKey(_address: address): bytes32</text>
<text text-anchor="start" x="23.99" y="-49.5" font-family="Times,serif" font-size="14.00"> &#160;&#160;&#160;verify(_address: address, _message: bytes, _signature: bytes): bool</text>
</g>
</g>
</svg>
