<?xml version="1.0" encoding="UTF-8" standalone="no"?>
<!DOCTYPE svg PUBLIC "-//W3C//DTD SVG 1.1//EN"
 "http://www.w3.org/Graphics/SVG/1.1/DTD/svg11.dtd">
<!-- Generated by graphviz version 5.0.0 (20220707.1540)
 -->
<!-- Title: UmlClassDiagram Pages: 1 -->
<svg width="298pt" height="258pt"
 viewBox="0.00 0.00 298.00 257.80" xmlns="http://www.w3.org/2000/svg" xmlns:xlink="http://www.w3.org/1999/xlink">
<g id="graph0" class="graph" transform="scale(1 1) rotate(0) translate(4 253.8)">
<title>UmlClassDiagram</title>
<polygon fill="white" stroke="transparent" points="-4,4 -4,-253.8 294,-253.8 294,4 -4,4"/>
<g id="clust1" class="cluster">
<title>cluster_0</title>
<polygon fill="none" stroke="black" points="8,-8 8,-241.8 282,-241.8 282,-8 8,-8"/>
<text text-anchor="middle" x="145" y="-16.2" font-family="Times,serif" font-size="14.00">src</text>
</g>
<!-- 0 -->
<g id="node1" class="node">
<title>0</title>
<polygon fill="#f2f2f2" stroke="black" points="15.96,-41.3 15.96,-233.3 274.04,-233.3 274.04,-41.3 15.96,-41.3"/>
<text text-anchor="middle" x="145" y="-216.7" font-family="Times,serif" font-size="14.00">TrustRegistry</text>
<text text-anchor="middle" x="145" y="-199.9" font-family="Times,serif" font-size="14.00">src/TrustRegistry.sol</text>
<polyline fill="none" stroke="black" points="15.96,-191.7 274.04,-191.7 "/>
<text text-anchor="start" x="23.96" y="-175.1" font-family="Times,serif" font-size="14.00">Public:</text>
<text text-anchor="start" x="23.96" y="-158.3" font-family="Times,serif" font-size="14.00"> &#160;&#160;trustScore: mapping(bytes32=&gt;uint)</text>
<text text-anchor="start" x="23.96" y="-141.5" font-family="Times,serif" font-size="14.00"> &#160;&#160;endorsers: mapping(bytes32=&gt;bytes32[])</text>
<polyline fill="none" stroke="black" points="15.96,-133.3 274.04,-133.3 "/>
<text text-anchor="start" x="23.96" y="-116.7" font-family="Times,serif" font-size="14.00">Public:</text>
<text text-anchor="start" x="23.96" y="-99.9" font-family="Times,serif" font-size="14.00"> &#160;&#160;&#160;endorse(_did: bytes32)</text>
<text text-anchor="start" x="23.96" y="-83.1" font-family="Times,serif" font-size="14.00"> &#160;&#160;&#160;getEndorsers(_did: bytes32): bytes32[]</text>
<text text-anchor="start" x="23.96" y="-66.3" font-family="Times,serif" font-size="14.00"> &#160;&#160;&#160;getTrustScore(_did: bytes32): uint</text>
<text text-anchor="start" x="23.96" y="-49.5" font-family="Times,serif" font-size="14.00"> &#160;&#160;&#160;collectAirdrop(_did: bytes32)</text>
</g>
</g>
</svg>
